# xmcd
#
# Track frame offsets:
#	150
#	11769
#	23738
#	36953
#	46895
#	58451
#	70692
#	81149
#	94191
#	105338
#	121246
#	132421
#	142629
#	153526
#	163525
#	175949
#	187912
#	200318
#	216461
#	230462
#
# Disc length: 3274 seconds
#
# Revision: 0
# Processed by: cddbd v1.5.2PL0 Copyright (c) Steve Scherf et al.
# Submitted via: EasyCDDAExtractor 10.0.1.1
#
DISCID=0c0cc814
DTITLE=Various Artist - Yesterday once more - Be My Baby
DYEAR=2008
DGENRE=Country
TTITLE0=The Ronettes - Be my baby
TTITLE1=Frankie Avalon - Why
TTITLE2=The Tymes - Wonderful wonderful!
TTITLE3=Connie Francis - Stupid Cupid
TTITLE4=The Merseybeats - Wishin' and Hopin
TTITLE5=The Sirelles - Baby, it's you
TTITLE6=Ricky Nelson - Hello Mary Lou
TTITLE7=john Fred and His Playboy band - Judy in disquise (with Glasses)
TTITLE8=The Marvelletes - Please Mr. Postman
TTITLE9=The Three Degrees - Take good care of yourself
TTITLE10=Sandy Posey - I will fallow him
TTITLE11=Johnny Tillotson - Princess Princess
TTITLE12=The Everly Brothers - I kissed you
TTITLE13=The drifters - There goes my baby
TTITLE14=Betty Everett and Jerry Butler - Let it be me
TTITLE15=Andy Williams - I'll be there
TTITLE16=5th Dimension - Wedding bell blues
TTITLE17=Melanie - Ruby Thuesday
TTITLE18=The Tremeloes - Here comes my baby
TTITLE19=Bay City Rollers - I only want' to be with you
EXTD=
EXTT0=
EXTT1=
EXTT2=
EXTT3=
EXTT4=
EXTT5=
EXTT6=
EXTT7=
EXTT8=
EXTT9=
EXTT10=
EXTT11=
EXTT12=
EXTT13=
EXTT14=
EXTT15=
EXTT16=
EXTT17=
EXTT18=
EXTT19=
PLAYORDER=
